<svg width="127" height="28" viewBox="0 0 127 28" fill="none" xmlns="http://www.w3.org/2000/svg">
<path d="M14 0C6.28043 0 0 6.28043 0 14C0 21.719 6.28043 28 14 28C21.719 28 28 21.719 28 14C28 6.28043 21.7201 0 14 0ZM20.2455 10.7958C20.2517 10.9345 20.2551 11.0744 20.2551 11.2142C20.2551 15.4724 17.0147 20.3808 11.0862 20.3808C9.26641 20.3808 7.57238 19.849 6.14678 18.9343C6.39886 18.9642 6.65544 18.9795 6.91541 18.9795C8.4256 18.9795 9.81455 18.464 10.9176 17.6001C9.50777 17.5742 8.31733 16.6426 7.90736 15.3619C8.1036 15.3991 8.30605 15.42 8.51301 15.42C8.80682 15.42 9.09216 15.3816 9.36228 15.3077C7.88818 15.0122 6.77781 13.7101 6.77781 12.1481C6.77781 12.1345 6.77781 12.1204 6.77838 12.1075C7.2126 12.3483 7.70942 12.4938 8.23725 12.5101C7.37332 11.9332 6.80432 10.9463 6.80432 9.82865C6.80432 9.23765 6.96278 8.68388 7.24023 8.20793C8.82881 10.158 11.2041 11.4403 13.8816 11.5757C13.8263 11.3394 13.7987 11.0941 13.7987 10.8409C13.7987 9.06171 15.2412 7.61863 17.0204 7.61863C17.9475 7.61863 18.7838 8.00999 19.3725 8.63595C20.1073 8.49158 20.7953 8.22428 21.4196 7.85378C21.1771 8.60662 20.6678 9.23765 20.0007 9.63691C20.6532 9.55909 21.2758 9.38653 21.8515 9.12994C21.4218 9.77507 20.8754 10.3429 20.2455 10.7958Z" fill="#333333"/>
<path d="M125.122 7.14748C123.87 4.94868 122.172 3.20788 120.027 1.9247C117.882 0.641459 115.54 0 113 0C110.46 0 108.117 0.641655 105.973 1.9247C103.828 3.20782 102.13 4.94868 100.878 7.14748C99.6259 9.34622 99 11.7473 99 14.3505C99 17.4776 99.89 20.2896 101.671 22.7872C103.451 25.285 105.751 27.0133 108.57 27.9725C108.898 28.0349 109.141 27.991 109.299 27.8418C109.457 27.6925 109.536 27.5054 109.536 27.2815C109.536 27.2441 109.533 26.9079 109.527 26.2725C109.521 25.637 109.518 25.0827 109.518 24.6097L109.098 24.684C108.831 24.7342 108.494 24.7555 108.087 24.7495C107.68 24.7437 107.257 24.6999 106.82 24.6186C106.382 24.5381 105.975 24.3512 105.598 24.0585C105.222 23.7657 104.955 23.3825 104.797 22.9095L104.614 22.4795C104.493 22.1932 104.301 21.8752 104.04 21.5266C103.779 21.1777 103.515 20.9412 103.247 20.8166L103.12 20.723C103.035 20.6607 102.956 20.5857 102.883 20.4985C102.81 20.4114 102.755 20.3243 102.719 20.2369C102.682 20.1496 102.712 20.0779 102.81 20.0217C102.907 19.9655 103.083 19.9382 103.338 19.9382L103.703 19.994C103.946 20.0439 104.247 20.1931 104.605 20.4424C104.964 20.6915 105.258 21.0153 105.489 21.4138C105.769 21.9247 106.106 22.314 106.501 22.5818C106.896 22.8497 107.294 22.9834 107.695 22.9834C108.096 22.9834 108.442 22.9523 108.734 22.8903C109.025 22.828 109.299 22.7343 109.554 22.6098C109.664 21.7749 109.961 21.1334 110.447 20.685C109.755 20.6104 109.132 20.498 108.579 20.3486C108.026 20.199 107.455 19.9562 106.865 19.6195C106.276 19.2833 105.787 18.8658 105.398 18.3677C105.009 17.8694 104.69 17.2152 104.441 16.4057C104.192 15.5958 104.067 14.6616 104.067 13.6028C104.067 12.0952 104.548 10.8123 105.508 9.7533C105.058 8.61987 105.1 7.34926 105.635 5.9416C105.988 5.82935 106.51 5.91358 107.203 6.19377C107.896 6.47408 108.403 6.71421 108.725 6.91331C109.047 7.11233 109.305 7.281 109.5 7.41778C110.63 7.09401 111.797 6.93209 113 6.93209C114.203 6.93209 115.37 7.09401 116.5 7.41778L117.193 6.96953C117.666 6.67043 118.226 6.39633 118.869 6.14717C119.514 5.89814 120.006 5.82955 120.347 5.94179C120.893 7.34952 120.942 8.62007 120.492 9.7535C121.452 10.8125 121.932 12.0957 121.932 13.603C121.932 14.6618 121.807 15.599 121.559 16.415C121.31 17.2312 120.988 17.8848 120.593 18.3771C120.198 18.8693 119.705 19.2836 119.116 19.6197C118.527 19.9561 117.955 20.1989 117.402 20.3485C116.849 20.4982 116.227 20.6106 115.534 20.6853C116.166 21.2457 116.482 22.1302 116.482 23.3385V27.281C116.482 27.5049 116.558 27.6919 116.71 27.8413C116.862 27.9905 117.102 28.0344 117.43 27.9719C120.249 27.0129 122.549 25.2845 124.33 22.7867C126.11 20.2891 127 17.4771 127 14.35C126.999 11.7471 126.373 9.34622 125.122 7.14748Z" fill="#333333"/>
<path fill-rule="evenodd" clip-rule="evenodd" d="M78 14C78 21.7319 71.7319 28 64 28C56.2681 28 50 21.7319 50 14C50 6.26807 56.2681 0 64 0C71.7319 0 78 6.26807 78 14ZM72.3652 20.8994V15.1274C72.3652 12.0366 70.7144 10.5981 68.5127 10.5981C66.7349 10.5981 65.9414 11.5762 65.4966 12.2607V10.8345H62.1499C62.1948 11.7783 62.1499 20.8989 62.1499 20.8989H65.4966V15.2778C65.4966 14.9761 65.519 14.6772 65.6074 14.4624C65.8501 13.8604 66.3994 13.2388 67.3237 13.2388C68.5356 13.2388 69.0186 14.1621 69.0186 15.5142V20.8994H72.3652ZM65.4966 12.2607V12.2935H65.4746L65.4858 12.2769L65.4966 12.2607ZM56.7554 7.72168C56.7554 6.73438 57.5044 5.98291 58.6489 5.98291C59.7939 5.98291 60.4976 6.73438 60.52 7.72168C60.52 8.68799 59.7939 9.46094 58.627 9.46094H58.605C57.4824 9.46094 56.7554 8.68799 56.7554 7.72168ZM60.2998 20.8994H56.9541V10.8345H60.2998V20.8994Z" fill="#333333"/>
</svg>
